/* XPM */
static char *result[] = {
/* columns rows colors chars-per-pixel */
"40 40 79 1 ",
"  c #CB0000",
". c #CE0D0D",
"X c #D40000",
"o c #DC0101",
"O c #D00C0C",
"+ c #DA0808",
"@ c #D21414",
"# c #D81313",
"$ c #D11A1A",
"% c #DB1E1E",
"& c #E00101",
"* c #EC0000",
"= c #F50000",
"- c #FF0000",
"; c #FF0C0C",
": c #E71414",
"> c #E41A1A",
", c #EB1F1F",
"< c #FF1414",
"1 c #F51818",
"2 c #FF1A1A",
"3 c #D32424",
"4 c #D92626",
"5 c #D62929",
"6 c #DC2D2D",
"7 c #D73333",
"8 c #D73838",
"9 c #DB3A3A",
"0 c #E12A2A",
"q c #EC2C2C",
"w c #FF2323",
"e c #FF2B2B",
"r c #E73030",
"t c #E23E3E",
"y c #ED3F3F",
"u c #FF3333",
"i c #F03838",
"p c #FF3C3C",
"a c #DB4646",
"s c #DF5151",
"d c #DF5C5C",
"f c #ED4C4C",
"g c #FF4141",
"h c #FE4A4A",
"j c #E05353",
"k c #E45959",
"l c #FF5454",
"z c #F05858",
"x c #FF5B5B",
"c c #E26363",
"v c #E46868",
"b c #EE6A6A",
"n c #F76666",
"m c #FF6363",
"M c #FE6B6B",
"N c #E67B7B",
"B c #ED7C7C",
"V c #FF7474",
"C c #FF7C7C",
"Z c #E98282",
"A c #ED8888",
"S c #FF8383",
"D c #F18A8A",
"F c #FF8C8C",
"G c #EE9292",
"H c #FF9393",
"J c #FE9C9C",
"K c #F5A4A4",
"L c #FFA4A4",
"P c #FFACAC",
"I c #F4B4B4",
"U c #FFB3B3",
"Y c #FEBCBC",
"T c #FFC4C4",
"R c #FECCCC",
"E c #FED3D3",
"W c #FFDCDC",
"Q c #FFE2E2",
"! c None",
/* pixels */
"!!!!!!!!!!!!!!!          !!!!!!!!!!!!!!!",
"!!!!!!!!!!!!                !!!!!!!!!!!!",
"!!!!!!!!!!                    !!!!!!!!!!",
"!!!!!!!!!      .5adccs8$       !!!!!!!!!",
"!!!!!!!      8NIEQQQQWEYGj$      !!!!!!!",
"!!!!!!     7GEQWWWEEEERRRTKk@     !!!!!!",
"!!!!!    .vTWWEEERRRTTTTYYYUD5     !!!!!",
"!!!!    @AEERRRTTTYYYUUUUUPPPGf     !!!!",
"!!!!   @ATTTTYYYUUUUPPPLLLLJJJHt    !!!!",
"!!!   .BTYYUUUPPPPLLLJJJHHHHFFFS6    !!!",
"!!    kUUPPPLLLJJJJHHHHFFFSSSCCCM$    !!",
"!!   5JLLLJJJJHHHFFFFSSSSCCVVVVMMf    !!",
"!    bJJHHHHFFSFSSSSCCVVVVMMMMmmmx%    !",
"!   5FHFFFSSSSCVMmmmmMMMmMmmxxxxlli    !",
"!   fFSSCCCVxpw<;;;;<2weupggggpuew:    !",
"   OnCVVVVlw----------------;-----*     ",
"   %MMMMmp;-----------------------=X    ",
"   0mmxle--------------------------X    ",
"   rllle---------------------------o    ",
"   qhhe----------------------------o    ",
"   qpu-----------------------------o    ",
"   ,u;-----------------------------o    ",
"   :1------------------------------X    ",
"   ++=----------------------------=X    ",
"     *----------------------------*     ",
"!    o----------------------------+    !",
"!     =--------------------------w>    !",
"!     &------------------------;uh#    !",
"!!     =----------------------<hmy    !!",
"!!     X=--------------------wmCn@    !!",
"!!!     o=------------------gCFC6    !!!",
"!!!!     o=---------------2mHJH9    !!!!",
"!!!!      X*-------------gHPUJ9     !!!!",
"!!!!!      X&=--------=eSUTYA5     !!!!!",
"!!!!!!        o*=--=<pSTERKs.     !!!!!!",
"!!!!!!!        @4tzSPRRIZa.      !!!!!!!",
"!!!!!!!!!       .39aa83O       !!!!!!!!!",
"!!!!!!!!!!                    !!!!!!!!!!",
"!!!!!!!!!!!!                !!!!!!!!!!!!",
"!!!!!!!!!!!!!!!          !!!!!!!!!!!!!!!"
};
