/* XPM */
static char *result[] = {
/* columns rows colors chars-per-pixel */
"40 40 162 2 ",
"   c #222426",
".  c #232426",
"X  c #232526",
"o  c gray14",
"O  c #252525",
"+  c #242527",
"@  c #252627",
"#  c #252728",
"$  c #282828",
"%  c #2B2928",
"&  c #2A2929",
"*  c #2C2A29",
"=  c #2E2B29",
"-  c #2F2B29",
";  c #2E2C2A",
":  c #2F2D2A",
">  c #2D2D2C",
",  c #2E2D2C",
"<  c #322D29",
"1  c #302D2A",
"2  c #302D2C",
"3  c #332F2C",
"4  c #37342B",
"5  c #34302C",
"6  c #35312C",
"7  c #36312C",
"8  c #38312B",
"9  c #39362A",
"0  c #38332D",
"q  c #3A342E",
"w  c #3C362E",
"e  c #3D372F",
"r  c #3E372F",
"t  c #3D392C",
"y  c #3E3A2C",
"u  c #3F382F",
"i  c #353331",
"p  c #393430",
"a  c #47362A",
"s  c #47372A",
"d  c #47372B",
"f  c #45372C",
"g  c #48372B",
"h  c #59412F",
"j  c #50482F",
"k  c #504435",
"l  c #514435",
"z  c #524535",
"x  c #524436",
"c  c #564736",
"v  c #574837",
"b  c #584937",
"n  c #5D4D39",
"m  c #654731",
"M  c #664731",
"N  c #614F3A",
"B  c #62503B",
"V  c #6A563D",
"C  c #6B563D",
"Z  c #6D583E",
"A  c #7A5234",
"S  c #7D5335",
"D  c #715A3F",
"F  c #796837",
"G  c #735B40",
"H  c #7B6142",
"J  c #7D6343",
"K  c #6F7070",
"L  c #717171",
"P  c #757778",
"I  c #777879",
"U  c #805535",
"Y  c #905D38",
"T  c #915E38",
"R  c #935F38",
"E  c #89753A",
"W  c #AD6C3C",
"Q  c #AE6C3C",
"!  c #AF6D3C",
"~  c #B06E3C",
"^  c #B36F3D",
"/  c #BD743E",
"(  c #866946",
")  c #886A46",
"_  c #896A47",
"`  c #896B47",
"'  c #97754B",
"]  c #C47840",
"[  c #C77940",
"{  c #C77A40",
"}  c #CA7B40",
"|  c #9C833D",
" . c #A98151",
".. c #AA8151",
"X. c #AF8553",
"o. c #B38754",
"O. c #D38042",
"+. c #C09058",
"@. c #C49359",
"#. c #C6955A",
"$. c #C7955A",
"%. c #C9975B",
"&. c #CB985B",
"*. c #D09C5D",
"=. c #D29D5E",
"-. c #D39D5E",
";. c #D39E5E",
":. c #D49E5E",
">. c #CBA846",
",. c #D9A260",
"<. c #DEA561",
"1. c #DFA662",
"2. c #E1A762",
"3. c #EBAE66",
"4. c #EFB167",
"5. c #F0B267",
"6. c #F1B268",
"7. c #F2B368",
"8. c #F3B368",
"9. c #F4B468",
"0. c #F6B669",
"q. c #FAB86A",
"w. c #FBB96B",
"e. c #FBBA6B",
"r. c #FDBB6B",
"t. c #FFBB6A",
"y. c #FFBC6B",
"u. c #FEBB6C",
"i. c #FFBC6C",
"p. c #FFBD6C",
"a. c #FFBC6D",
"s. c #FFBD6D",
"d. c #FFBE6D",
"f. c #FFBF6D",
"g. c #FFBD6E",
"h. c #FFBF70",
"j. c #FFC06E",
"k. c #FFC16E",
"l. c #FFC172",
"z. c #FFC173",
"x. c #FFC57F",
"c. c gray54",
"v. c gray55",
"b. c #939495",
"n. c #959697",
"m. c #FFCA8A",
"M. c #FFD39E",
"N. c #FFDEB7",
"B. c #FFE0BC",
"V. c #FFE1BC",
"C. c #FFE1BD",
"Z. c #C5C5C5",
"A. c #C6C7C7",
"S. c gray78",
"D. c #C7C7C8",
"F. c gray79",
"G. c #CACACA",
"H. c #FFEED9",
"J. c #FFF0DF",
"K. c #FFF1E0",
"L. c white",
"P. c None",
/* pixels */
"P.P.P.$ $ $ $ $ $ $ $ $ $ $ $ $ $ $ $ $ $ $ $ $ $ $ $ P.P.P.P.P.P.P.X + $ P.P.P.",
"P.P.P.= A T Y Y Y Y Y Y Y Y Y Y Y Y Y Y Y Y Y Y R S - P.P.P.. X $ 7 l N ; P.P.P.",
"P.P.P.< Q O.} [ [ [ [ [ [ [ [ [ [ [ [ [ [ [ { ] ^ U % + & q c J ..=.7.*.6 P.P.P.",
"P.P.P.< W / h d a s s s s s s s s s s s s a g f 8 u n ( o.,.8.i.d.d.f.=.6 P.P.P.",
"P.P.P.< Q ! 3 P n.b.b.b.b.b.b.b.b.b.b.b.b.n.I > ' 2.0.p.d.d.p.i.i.i.d.=.6 P.P.P.",
"P.P.P.< Q ! p S.L.L.L.L.L.L.L.L.L.L.L.L.L.L.G.i $.j.g.a.i.i.i.i.i.i.d.=.6 P.P.P.",
"P.P.P.< Q ! p Z.L.L.L.L.L.L.L.L.L.L.L.L.L.L.D.i @.h.N.M.t.i.i.i.i.i.d.=.6 P.P.P.",
"P.P.P.< Q ! p Z.L.L.L.L.L.L.L.L.L.L.L.L.L.L.D.i @.z.K.C.t.i.i.i.i.i.d.=.6 P.P.P.",
"P.P.P.< Q ! p Z.L.L.L.L.L.L.L.L.L.L.L.L.L.L.D.i @.z.J.B.t.i.i.i.i.i.d.=.6 P.P.P.",
"P.P.P.< Q ! p Z.L.L.L.L.L.L.L.L.L.L.L.L.L.L.D.i @.z.J.B.t.i.i.i.i.i.d.=.6 P.P.P.",
"P.P.P.< Q ! p Z.L.L.L.L.L.L.L.L.L.L.L.L.L.L.D.i @.z.J.B.t.i.i.i.i.i.d.=.6 P.P.P.",
"P.P.P.< Q ! p Z.L.L.L.L.L.L.L.L.L.L.L.L.L.L.D.i @.z.J.V.t.i.i.i.i.i.d.=.6 P.P.P.",
"P.P.P.< Q ! p Z.L.L.L.L.L.L.L.L.L.L.L.L.L.L.D.i @.l.H.N.t.i.i.i.i.i.d.=.6 P.P.P.",
"P.P.P.< Q ! p Z.L.L.L.L.L.L.L.L.L.L.L.L.L.L.D.i @.d.m.x.y.i.i.i.i.i.d.=.6 P.P.P.",
"P.P.P.< Q ! p Z.L.L.L.L.L.L.L.L.L.L.L.L.L.L.D.i @.d.t.y.i.i.i.i.i.i.d.=.6 P.P.P.",
"P.P.P.< Q ! p Z.L.L.L.L.L.L.L.L.L.L.L.L.L.L.D.i @.d.i.i.i.i.i.i.i.i.d.=.6 P.P.P.",
"P.P.P.< Q ! p Z.L.L.L.L.L.L.L.L.L.L.L.L.L.L.D.i @.d.i.i.i.i.i.i.i.i.d.=.6 P.P.P.",
"P.P.P.< Q ! p Z.L.L.L.L.L.L.L.L.L.L.L.L.L.L.D.i @.d.i.i.i.s.r.0.i.p.d.=.6 P.P.P.",
"P.P.P.< Q ! p Z.L.L.L.L.L.L.L.L.L.L.L.L.L.L.D.i @.d.i.i.p.1.H v _ 3.f.=.6 P.P.P.",
"P.P.P.< Q ! p Z.L.L.L.L.L.L.L.L.L.L.L.L.L.L.D.i @.d.i.p.q.C 9 F y ( s.=.6 P.P.P.",
"P.P.P.< Q ! p Z.L.L.L.L.L.L.L.L.L.L.L.L.L.L.D.i @.d.i.6.X.5 4 >.E x 0.;.6 P.P.P.",
"P.P.P.< Q ! p Z.L.L.L.L.L.L.L.L.L.L.L.L.L.L.D.i @.f.w.J 0 5 t | j D u.-.6 P.P.P.",
"P.P.P.< Q ! p Z.L.L.L.L.L.L.L.L.L.L.L.L.L.L.D.i @.d.u.%.&.+.b e B ,.f.=.6 P.P.P.",
"P.P.P.< Q ! p Z.L.L.L.L.L.L.L.L.L.L.L.L.L.L.D.i @.d.i.d.d.s.4.1.9.p.d.=.6 P.P.P.",
"P.P.P.< Q ! p Z.L.L.L.L.L.L.L.L.L.L.L.L.L.L.D.i @.d.i.i.i.i.p.s.p.i.d.=.6 P.P.P.",
"P.P.P.< Q ! p Z.L.L.L.L.L.L.L.L.L.L.L.L.L.L.D.i @.d.i.i.i.i.i.i.i.i.d.=.6 P.P.P.",
"P.P.P.< Q ! p Z.L.L.L.L.L.L.L.L.L.L.L.L.L.L.D.i @.d.i.i.i.i.i.i.i.i.d.=.6 P.P.P.",
"P.P.P.< Q ! p Z.L.L.L.L.L.L.L.L.L.L.L.L.L.L.D.i @.d.i.i.i.i.i.i.i.i.d.=.6 P.P.P.",
"P.P.P.< Q ! p Z.L.L.L.L.L.L.L.L.L.L.L.L.L.L.D.i @.d.i.i.i.i.i.i.i.i.d.=.6 P.P.P.",
"P.P.P.< Q ! p Z.L.L.L.L.L.L.L.L.L.L.L.L.L.L.D.i @.d.i.i.i.i.i.i.i.i.d.=.6 P.P.P.",
"P.P.P.< Q ! p Z.L.L.L.L.L.L.L.L.L.L.L.L.L.L.D.i @.d.i.i.i.i.i.i.i.i.d.=.6 P.P.P.",
"P.P.P.< Q ! p Z.L.L.L.L.L.L.L.L.L.L.L.L.L.L.D.i @.d.i.i.i.i.i.i.i.i.d.=.6 P.P.P.",
"P.P.P.< Q ! p Z.L.L.L.L.L.L.L.L.L.L.L.L.L.L.D.i @.d.i.i.i.i.i.i.i.i.d.=.6 P.P.P.",
"P.P.P.< Q ! p Z.L.L.L.L.L.L.L.L.L.L.L.L.L.L.D.i @.d.i.i.i.i.i.i.i.i.d.=.6 P.P.P.",
"P.P.P.< Q ! p Z.L.L.L.L.L.L.L.L.L.L.L.L.L.L.D.i @.d.i.i.i.i.i.i.i.i.d.=.6 P.P.P.",
"P.P.P.< ! ~ p A.L.L.L.L.L.L.L.L.L.L.L.L.L.L.F.i $.k.s.p.i.i.i.i.i.i.d.=.6 P.P.P.",
"P.P.P.* m M 2 K v.c.c.c.c.c.c.c.c.c.c.c.c.v.L , ) #.<.5.e.s.d.d.s.p.d.=.6 P.P.P.",
"P.P.P.$ # # $ O o o o o o o o o o o o o o o O $ $ : w k V `  .$.1.6.i.:.6 P.P.P.",
"P.P.P.P.P.P.P.P.P.P.P.P.P.P.P.P.P.P.P.P.P.P.P.P.P.P.P.P.  + $ 1 r z Z G : P.P.P.",
"P.P.P.P.P.P.P.P.P.P.P.P.P.P.P.P.P.P.P.P.P.P.P.P.P.P.P.P.P.P.P.P.P..   @ $ P.P.P."
};
