/* XPM */
static char *result[] = {
/* columns rows colors chars-per-pixel */
"40 40 201 2 ",
"   c #CA970E",
".  c #CB970E",
"X  c #CD980E",
"o  c #CD990E",
"O  c #D59E0E",
"+  c #D7A00E",
"@  c #DAA30F",
"#  c #DDA50F",
"$  c #E1A70F",
"%  c #E2A80F",
"&  c #E3A90F",
"*  c #E4A90F",
"=  c #E4AA0F",
"-  c #E5AA0F",
";  c #E7AC0F",
":  c #FBBA0E",
">  c #FDBB0E",
",  c #FEBC0D",
"<  c #FDBC0F",
"1  c #FEBC0E",
"2  c #FEBC0F",
"3  c #FEBD0F",
"4  c #E9AD10",
"5  c #E9AE10",
"6  c #EAAE10",
"7  c #EAAF10",
"8  c #EBAF10",
"9  c #ECB010",
"0  c #EDB010",
"q  c #EEB110",
"w  c #EFB210",
"e  c #EFB314",
"r  c #F0B210",
"t  c #F0B310",
"y  c #F1B310",
"u  c #F2B410",
"i  c #F3B510",
"p  c #F4B510",
"a  c #F5B710",
"s  c #F6B710",
"d  c #F5B713",
"f  c #F9B910",
"g  c #F9BA11",
"h  c #FABA11",
"j  c #FBBB11",
"k  c #F9B912",
"l  c #FCBB11",
"z  c #FCBC11",
"x  c #FDBC11",
"c  c #FDBD11",
"v  c #FEBD10",
"b  c #FEBD11",
"n  c #FFBD11",
"m  c #FFBE11",
"M  c #FDBD12",
"N  c #FEBD12",
"B  c #FEBE13",
"V  c #FABB15",
"C  c #FEBE14",
"Z  c #FEBE16",
"A  c #FFBF16",
"S  c #FEBF17",
"D  c #F4B818",
"F  c #F2B81F",
"G  c #FABD1A",
"H  c #FDBE19",
"J  c #FDBF19",
"K  c #FEBF18",
"L  c #FEBF19",
"P  c #FEBF1A",
"I  c #FEBF1B",
"U  c #F6BC23",
"Y  c #F8BF28",
"T  c #FEC01B",
"R  c #FFC11B",
"E  c #FEC01C",
"W  c #FDC121",
"Q  c #FEC121",
"!  c #FEC222",
"~  c #FEC223",
"^  c #FFC421",
"/  c #FEC224",
"(  c #FEC325",
")  c #FEC326",
"_  c #FEC327",
"`  c #F7C02D",
"'  c #FEC429",
"]  c #FEC42A",
"[  c #FCC32D",
"{  c #FDC42D",
"}  c #FCC430",
"|  c #FEC631",
" . c #FFC732",
".. c #FDC635",
"X. c #FEC736",
"o. c #F9C53A",
"O. c #FBC73D",
"+. c #FEC838",
"@. c #FEC93B",
"#. c #FECA40",
"$. c #FECB42",
"%. c #FECB45",
"&. c #FECC47",
"*. c #FFCD48",
"=. c #FECD4C",
"-. c #FED25B",
";. c #FFD35D",
":. c #FED360",
">. c #FFD565",
",. c #FED66A",
"<. c #FED66D",
"1. c #FFD872",
"2. c #FED975",
"3. c #FEDA78",
"4. c #FEDA79",
"5. c #FFDA7B",
"6. c #023A85",
"7. c #023B85",
"8. c #043C86",
"9. c #073E88",
"0. c #073F88",
"q. c #083F88",
"w. c #0E448B",
"e. c #0F448B",
"r. c #0F458C",
"t. c #124890",
"y. c #275797",
"u. c #2C5C9D",
"i. c #37639F",
"p. c #3D6AA6",
"a. c #4B73A8",
"s. c #5179AF",
"d. c #5C80B0",
"f. c #5E82B1",
"g. c #5F83B2",
"h. c #6387B7",
"j. c #7190BA",
"k. c #7493BE",
"l. c #FAD980",
"z. c #FFDD85",
"x. c #F2D78C",
"c. c #FFE18F",
"v. c #FFE090",
"b. c #FFE091",
"n. c #FFE292",
"m. c #FFE399",
"M. c #C7C7B5",
"N. c #DED5B3",
"B. c #EDDDAD",
"V. c #FFE5A0",
"C. c #FFE8AD",
"Z. c #FFE9B1",
"A. c #FFEAB3",
"S. c #FFEBB6",
"D. c #FFEBB7",
"F. c #849FC4",
"G. c #8BA5C8",
"H. c #A6BAD4",
"J. c #A8BBD6",
"K. c #B6C6DC",
"L. c #B8C8DD",
"P. c #B8C9E0",
"I. c #BCCCE1",
"U. c #FFEEC2",
"Y. c #FFEFC4",
"T. c #FFF0C4",
"R. c #FFF0C8",
"E. c #FFF0CA",
"W. c #FFF2CF",
"Q. c #F6EFD7",
"!. c #FFF4D6",
"~. c #FFF5DB",
"^. c #FFF6DF",
"/. c #C1CFE1",
"(. c #DFE2E0",
"). c #D9E2ED",
"_. c #DBE3EE",
"`. c #E6EAEE",
"'. c #FFF7E4",
"]. c #FFF8E4",
"[. c #FFF8E5",
"{. c #FFFBE7",
"}. c #FFF9EA",
"|. c #FFFAEE",
" X c #E4EAF2",
".X c #EAEFF5",
"XX c #EFF3F8",
"oX c #FFFBF0",
"OX c #FFFBF1",
"+X c #FFFCF3",
"@X c #F5F7FA",
"#X c #FFFDF8",
"$X c #FFFFFA",
"%X c #FFFEFB",
"&X c #F9FAFC",
"*X c #FFFFFD",
"=X c #FDFEFF",
"-X c #FDFFFF",
";X c #FEFEFE",
":X c white",
">X c None",
/* pixels */
">X>X>X>X>X>X>X>X>X>X>X>X>X>X>X>X>X>X>X>X>X>X>X>X>X>X>X>X>X>X>X>X>X>X>X>X>X>X>X>X",
">X>X>X>X>X>X>X>X>X>X>X>X>X>X>X>X>X>X>X>X>X>X>X>X>X>X>X>X>X>X>X>X>X>X>X>X>X>X>X>X",
">X>X>X>X>X>X>X>X>X>X>X>X>X>X>XO...{ _ / / _ { ..O.>X>X>X>X>X>X>X>X>X>X>X>X>X>X>X",
">X>X>X>X>X>X>X>X>X>X>X>Xo.} Q Z b v v v v v v b Z Q } o.>X>X>X>X>X>X>X>X>X>X>X>X",
">X>X>X>X>X>X>X>X>X>X>X[ E b v b b b b b b b b b b v b E [ >X>X>X>X>X>X>X>X>X>X>X",
">X>X>X>X>X>X>X>X>X` W N v b b b b b b b b b b b b b b v N W ` >X>X>X>X>X>X>X>X>X",
">X>X>X>X>X>X>X>XY I b b b b b b b b b b b b b b b b b b b b I Y >X>X>X>X>X>X>X>X",
">X>X>X>X>X>X>XU J v b b b b b b b b b b b b b b b b b b b b v J U >X>X>X>X>X>X>X",
">X>X>X>X>X>XF H b b b b b b b b b b b b b b b b b b b b b b b b H F >X>X>X>X>X>X",
">X>X>X>X>X>XG b b b b b b b b b b b b b b b b b b b b b b b b b b G >X>X>X>X>X>X",
">X>X>X>X>XD B b b b b b b b b b v b b b b b b b b b b b b b v b b B D >X>X>X>X>X",
">X>X>X>X>XV b b b b b b b v 1 Z T C 1 v b b b b b b b 2 v L P b 1 b V >X>X>X>X>X",
">X>X>X>Xe M b b b b b b 2 ! 2.D.R.C.:.K v b b b b b 3 +.b.U.Y.m.$.v M e >X>X>X>X",
">X>X>X>Xd b b b b b b 3 _ A.:X:X:X:X$Xn.K v b b b 2 =.~.:X:X:X:X{.;.v d >X>X>X>X",
">X>X>X>Xk b b b b b b b v.:X:X:X@XK.J.`.>.1 b b v ( E.:X:X:X XH.P.Q. .f >X>X>X>X",
">X>X>X>Xj b b b b b 3 ' ~.:X:X;XF.w.q.s.B.A b b , -.%X:X:X.Xa.0.r.G.1.: >X>X>X>X",
">X>X>X>Xz b b b b b 1 @.|.:X:XXXi.8.9.t.M.^ v b , 3.:X:X:X/.e.9.8.p.x.< >X>X>X>X",
">X>X>X= x b b b b b 2 | [.:X:X&Xd.6.6.u.N.R v b , ,.:X:X:X).y.6.7.h.l.> - >X>X>X",
">X>X>X= x b b b b b b S Z.:X:X:X_.j.g.I.z.3 b b 2 X.'.:X:X:XL.f.k.(.*.> - >X>X>X",
">X>X>X= x b b b b b b 2 %.^.:X:X:X:X-XT.] 3 b b b b 4.#X:X:X:X=X*Xc.C x - >X>X>X",
">X>X>X= x b b b b b b b v &.S.}.+X].V.| 2 b b b b v Z <.W.oXOX!.5.T v x - >X>X>X",
">X>X>X= x b b b b b b b b 2 L +.%.| C 2 b b b b b b v 2 ~ #.$.) v v b x - >X>X>X",
">X>X>X= x b b b b b b b b b v 2 1 2 b b b b b b b b b b v 1 1 v b b b x - >X>X>X",
">X>X>X= x b b b b b b b b b b b b b b b b b b b b b b b b b b b b b b x - >X>X>X",
">X>X>X= x b b b b b b b b b b b b b b b b b b b b b b b b b b b b b b x - >X>X>X",
">X>X>X= x b b b b b b b b b b b b b b b b b b b b b b b b b b b b b b x - >X>X>X",
">X>X>X= x b b b b b b b b b b b b b b b b b b b b b b b b b b b b b b x - >X>X>X",
">X>X>X= x b b b b b b b b b b b b b b b b b b b b b b b b b b b b b b x - >X>X>X",
">X>X>X= x b b b b b b b b b b b b b b b b b b b b b b b b b b b b b b x - >X>X>X",
">X>X>X= x b b b b b b b b b b b b b b b b b b b b b b b b b b b b b b x - >X>X>X",
">X>X>X= x b b b b b b b b b b b b b b b b b b b b b b b b b b b b b b x - >X>X>X",
">X>X>X- x b b b b b b b b b b b b b b b b b b b b b b b b b b b b b b x - >X>X>X",
">X>X>X- x b b b b b b b b b b b b b b b b b b b b b b b b b b b b b b x - >X>X>X",
">X>X>X= x b b b b x l b b b b b b b b l l b b b b b b b b c l b b b b x = >X>X>X",
">X>X>X& z b b b p + . 6 b b b b b b 8 X o 7 x b b b b b g #   ; z b b z = >X>X>X",
">X>X>X>Xl b b y >X>X>X>X9 b b b b 0 >X>X>X>X4 b b b b j @ >X>X>X* x b z % >X>X>X",
">X>X>X>Xh m u >X>X>X>X>X>Xp m m s >X>X>X>X>X>Xr m n x & >X>X>X>X>X5 b j >X>X>X>X",
">X>X>X>X6 w >X>X>X>X>X>X>Xo t i O >X>X>X>X>X>X>X0 a $ >X>X>X>X>X>X>X8 q >X>X>X>X",
">X>X>X>X>X>X>X>X>X>X>X>X>X>X>X>X>X>X>X>X>X>X>X>X>X>X>X>X>X>X>X>X>X>X>X>X>X>X>X>X",
">X>X>X>X>X>X>X>X>X>X>X>X>X>X>X>X>X>X>X>X>X>X>X>X>X>X>X>X>X>X>X>X>X>X>X>X>X>X>X>X"
};
