/* XPM */
static char *result[] = {
/* columns rows colors chars-per-pixel */
"40 40 78 1 ",
"  c #979797",
". c #989898",
"X c #9D9D9D",
"o c gray63",
"O c #A2A2A2",
"+ c #A4A4A4",
"@ c #A5A5A5",
"# c gray65",
"$ c #A7A7A7",
"% c gray66",
"& c #A9A9A9",
"* c #AAAAAA",
"= c gray67",
"- c #ACACAC",
"; c gray68",
": c #AEAEAE",
"> c #AFAFAF",
", c gray69",
"< c #B1B1B1",
"1 c #B2B2B2",
"2 c gray70",
"3 c #B4B4B4",
"4 c gray71",
"5 c #B6B6B6",
"6 c #B7B7B7",
"7 c gray72",
"8 c #B9B9B9",
"9 c gray73",
"0 c #BBBBBB",
"q c #BCBCBC",
"w c gray74",
"e c gray",
"r c gray75",
"t c #C0C0C0",
"y c #C1C1C1",
"u c gray76",
"i c #C3C3C3",
"p c gray77",
"a c #C5C5C5",
"s c #C6C6C6",
"d c gray78",
"f c #C8C8C8",
"g c gray79",
"h c #CACACA",
"j c #CBCBCB",
"k c gray80",
"l c #CDCDCD",
"z c #CECECE",
"x c gray81",
"c c #D0D0D0",
"v c gray82",
"b c #D2D2D2",
"n c LightGray",
"m c gray83",
"M c #D5D5D5",
"N c gray84",
"B c #D7D7D7",
"V c #D8D8D8",
"C c gray85",
"Z c #DADADA",
"A c gray86",
"S c gainsboro",
"D c #DDDDDD",
"F c gray87",
"G c #DFDFDF",
"H c gray88",
"J c #E1E1E1",
"K c #E2E2E2",
"L c gray89",
"P c #E4E4E4",
"I c gray90",
"U c #E6E6E6",
"Y c #E7E7E7",
"T c gray91",
"R c #E9E9E9",
"E c #EAEAEA",
"W c gray92",
"Q c None",
/* pixels */
"DLLHUPLQKGhCQQQQQHJKQQJzLJDAFHJKKJJDzGLL",
"QQQQQQQQQQhQQQQQQQQQQQQhQQQQQQQQQQQKzIRU",
"QQQQQQQQQQhQQQQQQQQQQQQfHQQQQQQQQQQTcTWT",
",1:,1><4;$<1+%O+%;,<=%*>=O+$#O .XXo%<$@%",
"rutr5ridaehi0ertiqudpiakiwyat7=586qrgr0u",
"QQQQgQQQQQQQQQQQQgVFQQSQQQQQQQpJJKKHKGKE",
"QQQQkFQQQQQQQQQQQhZQQQQQQQQQQM9GGGKGHLLL",
"QQQQ5tQQQQQQQQiQrrfuuiuupirqr6=rw9qwwipi",
"&:>-33*>:>102<968t837696w84<2;64=+@@*>,1",
"QQQQQQQQQQkQQQQQQQQQQQQlQQQQQQFDQQInvPEE",
"QQQQQQQQQQkFQQQQQQQQQQQzQQQQQQQQQQQmcIIY",
"QQQQQQQQQQdmQQQQQQQQQQQgQQQQQQQQMbQjkQKH",
"32$-><;->1,<3233<2292%+5::>-;;@>>:,,5<3<",
"QQnQzNQAAQQQQQQQQzBQZQVQQQQDScpDAGGDSFFF",
"QQQQlQQQQQQQQQQQQvQQQQQQQQQQQvaQQQQQGQQQ",
"QQQQlQQQQQQQQQQQQkQQQQQQQQQQQMjQQQQQQQQQ",
"QQw970QQ7651;>85&<3;<>9822,1>%:*=*-;3642",
"uyuigfuuai7uyuggtddsddkygjgjgdkfghjigcbb",
"QQQQQQQQQQiMQQQQQQQQQQQkQQQQQQQQQQQMNQQQ",
"QQQQQQQQQQpNQQQQQQQQQQQhQQQQQQQQQQQMZQQQ",
";;=*%;;>491q680098w0qert960q9:,11746q615",
"ipue9rtuhlvbfzczvdxnmmNCmnmNMpjncnnVZBmB",
"QQQQQBQQQQQQQQQQQlQQQQQQQQQQQvBQQQQQQQQQ",
"QQQQQmQQQQQQQQQQQvQQQQQQQQQQQxnQQQQQQQQQ",
"QtQq3760errpfptupya096860w649680qerq43ww",
"587516<9ey0sjpafklzprruysadadhksgjzgfdcx",
"QQQQQQQQQQdMQQQQQQQQQQQMQQQQQQQQQQQBQQQQ",
"QQQQQQQQQQjQQQQQQQQQQQQxQQQQQQQQQQQNIQQQ",
"QQQQQQQQQQyhQQQQQQQQQQgpghgfsfdpQ7qeayip",
",:22>-3599rr568qiwshgsgjyyupi8rr679dduip",
"QQQQjaQQQQQQQQQQQgDQQQQQQQQQQjVQQQQQQQQQ",
"QQQQcpQQQQQQQQQQQdSQQQQQQQQQQfDQQQQQQQQQ",
"QQQxe8lkQQQaQddgf0dgQddiertyt7uyywQ80q08",
"rytttptuau9tiadhjkghjhaesfhhdlkjzlhqjzzj",
"QQQQQQQQQQgMQQQQQQQQQQmgQQQQQQQQQQQjEQQY",
"QQQQQQQQQQlMQQQQQQQQQQQhQQQQQQQQQQQbYQQQ",
"QQQQQdszldqdfdhgdfurifuskfitet7789wr0577",
"ppppw9lvlhlbxzvnmalhkMBACMvBBfmBCCZDZNVS",
"QQQQQuQQQQQQQQQQQlLQQQQQQQQQQzQQQQQQQQQQ",
"QQQQQiQQQQQQQQQQQgHQQQQQQQQQQxQQQQQQQQQQ"
};
